<svg xmlns="http://www.w3.org/2000/svg" width="123" height="34" viewBox="0 0 123 34" fill="none"><path d="M45.9436 29.5754C45.264 30.5475 44.2887 31.387 43.0178 32.094C41.7471 32.7716 40.2842 33.1103 38.6293 33.1103C36.856 33.1103 35.2012 32.6389 33.6645 31.6964C32.1572 30.7242 30.9456 29.3987 30.0294 27.7196C29.1132 26.0405 28.6553 24.1552 28.6553 22.0637C28.6553 19.9722 29.1132 18.0869 30.0294 16.4078C30.9456 14.7287 32.1572 13.4179 33.6645 12.4752C35.2012 11.5031 36.856 11.0171 38.6293 11.0171C40.2842 11.0171 41.7471 11.3706 43.0178 12.0776C44.2887 12.7551 45.264 13.5799 45.9436 14.552V12.5776C45.9436 11.9598 46.4461 11.4589 47.0657 11.4589H49.2542C49.874 11.4589 50.3764 11.9598 50.3764 12.5776V31.5497C50.3764 32.1675 49.874 32.6685 49.2542 32.6685H47.0657C46.4461 32.6685 45.9436 32.1675 45.9436 31.5497V29.5754ZM39.5158 28.9127C40.698 28.9127 41.7765 28.618 42.7518 28.0288C43.727 27.4396 44.4956 26.6297 45.057 25.5987C45.6481 24.5381 45.9436 23.3597 45.9436 22.0637C45.9436 20.7675 45.6481 19.604 45.057 18.573C44.4956 17.5125 43.727 16.6877 42.7518 16.0985C41.7765 15.5093 40.698 15.2148 39.5158 15.2148C38.3336 15.2148 37.2549 15.5093 36.2799 16.0985C35.3046 16.6877 34.5213 17.5125 33.9302 18.573C33.3688 19.604 33.0881 20.7675 33.0881 22.0637C33.0881 23.3597 33.3688 24.5381 33.9302 25.5987C34.5213 26.6297 35.3046 27.4396 36.2799 28.0288C37.2549 28.618 38.3336 28.9127 39.5158 28.9127Z" fill="white"></path><path d="M53.3604 12.5777C53.3604 11.9599 53.8627 11.4591 54.4825 11.4591H57.3502V6.13265C57.3502 5.62055 57.6985 5.17386 58.1969 5.04821L60.3851 4.49596C61.0944 4.317 61.783 4.85126 61.783 5.58038V11.4591H66.2018C66.8214 11.4591 67.3242 11.9599 67.3242 12.5777V14.5381C67.3242 15.1559 66.8214 15.6568 66.2018 15.6568H61.783V25.5988C61.783 26.6592 62.0338 27.4104 62.5366 27.8522C63.0387 28.2647 63.822 28.4708 64.886 28.4708H66.2018C66.8214 28.4708 67.3242 28.9717 67.3242 29.5896V31.5498C67.3242 32.1677 66.8214 32.6686 66.2018 32.6686H63.9995C59.5665 32.6686 57.3502 30.4592 57.3502 26.0407V15.6568H54.4825C53.8627 15.6568 53.3604 15.1559 53.3604 14.5381V12.5777Z" fill="white"></path><path d="M89.2794 28.0012C89.7026 28.393 89.7626 29.0459 89.3674 29.466C88.5163 30.3714 87.4647 31.1591 86.2129 31.8289C84.6467 32.6833 82.8882 33.1104 80.9377 33.1104C78.8986 33.1104 77.0221 32.6244 75.3079 31.6522C73.6234 30.6801 72.2936 29.3546 71.3184 27.6755C70.3431 25.9669 69.8555 24.0964 69.8555 22.0638C69.8555 20.0313 70.3431 18.1754 71.3184 16.4963C72.2936 14.7878 73.6234 13.4475 75.3079 12.4754C77.0221 11.5033 78.8986 11.0172 80.9377 11.0172C82.8882 11.0172 84.6316 11.4296 86.1685 12.2544C87.358 12.87 88.3531 13.6004 89.1527 14.4454C89.547 14.8618 89.4842 15.5106 89.0635 15.9002L87.5983 17.2563C87.1157 17.7029 86.3554 17.6351 85.8682 17.1934C85.4027 16.771 84.8672 16.3914 84.2623 16.0545C83.2871 15.4948 82.1789 15.2149 80.9377 15.2149C79.6964 15.2149 78.5586 15.5095 77.5245 16.0987C76.5193 16.6878 75.7215 17.5126 75.1307 18.5731C74.5688 19.6041 74.2883 20.7677 74.2883 22.0638C74.2883 23.3599 74.5688 24.5382 75.1307 25.5988C75.7215 26.6298 76.5193 27.4397 77.5245 28.0289C78.5586 28.6181 79.6964 28.9128 80.9377 28.9128C82.1789 28.9128 83.317 28.6181 84.3511 28.0289C85.0065 27.637 85.5905 27.1977 86.1039 26.711C86.5775 26.2616 87.3318 26.1988 87.8114 26.6424L89.2794 28.0012Z" fill="white"></path><path d="M97.8654 14.5523C98.5451 13.5802 99.4612 12.7554 100.614 12.0779C101.766 11.3709 103.067 11.0174 104.515 11.0174C106.14 11.0174 107.588 11.4003 108.859 12.1663C110.13 12.9027 111.12 13.9779 111.829 15.3919C112.568 16.7764 112.937 18.4113 112.937 20.2966V31.5501C112.937 32.1679 112.435 32.6689 111.815 32.6689H109.627C109.007 32.6689 108.504 32.1679 108.504 31.5501V20.2966C108.504 18.7648 108.047 17.5423 107.13 16.6291C106.244 15.6864 105.076 15.2152 103.628 15.2152C101.944 15.2152 100.555 15.7748 99.4612 16.8942C98.3975 17.9841 97.8654 19.4129 97.8654 21.1803V31.5501C97.8654 32.1679 97.3631 32.6689 96.7433 32.6689H94.5548C93.9352 32.6689 93.4326 32.1679 93.4326 31.5501V3.89556C93.4326 3.38349 93.7816 2.9368 94.2794 2.81113L96.4676 2.2589C97.1769 2.07995 97.8654 2.6142 97.8654 3.34334V14.5523Z" fill="white"></path><path d="M15.3907 33.1385C12.5356 33.1385 9.94998 32.5211 7.63362 31.2861C5.34424 30.0243 3.53966 28.2925 2.21987 26.0911C0.927035 23.8895 0.420898 21.4062 0.420898 18.6409C0.420898 15.8757 0.940501 13.3923 2.26027 11.1908C3.58005 8.98929 5.38463 7.27105 7.67404 6.03607C9.99037 4.77423 12.576 4.14331 15.4311 4.14331C17.7474 4.14331 19.8617 4.54603 21.774 5.35145C23.3464 6.01368 24.7184 6.9209 25.89 8.07318C26.3174 8.49338 26.2777 9.17799 25.8404 9.58792L24.0519 11.2645C23.5981 11.6899 22.8874 11.6601 22.4219 11.2475C20.5311 9.57199 18.2817 8.73423 15.6735 8.73423C13.7342 8.73423 11.997 9.16378 10.4617 10.0229C8.92648 10.8552 7.72791 12.023 6.86601 13.5265C6.00412 15.03 5.57318 16.7348 5.57318 18.6409C5.57318 20.5471 6.00412 22.2519 6.86601 23.7555C7.72791 25.2588 8.92648 26.4402 10.4617 27.2993C11.997 28.1316 13.7342 28.5476 15.6735 28.5476C18.2792 28.5476 20.5268 27.7013 22.4164 26.0086C22.8839 25.5899 23.6022 25.5599 24.0572 25.9919L25.8498 27.6937C26.2827 28.1046 26.3202 28.7854 25.8944 29.2034C24.7175 30.3582 23.3305 31.2671 21.7337 31.9305C19.8213 32.7358 17.707 33.1385 15.3907 33.1385Z" fill="white"></path><path d="M118.566 5.11491C118.033 4.55517 117.437 3.99545 116.842 3.529C116.591 3.34242 116.277 3.28022 115.995 3.34242C115.681 3.40461 115.43 3.5912 115.305 3.87106L113.517 7.26055C113.266 7.72702 113.36 8.25563 113.736 8.62881C114.113 8.97084 114.677 9.03304 115.117 8.7532L118.379 6.70083C118.629 6.54534 118.817 6.26546 118.849 5.98562C118.88 5.64355 118.786 5.33259 118.566 5.11491Z" fill="white"></path><path d="M122.611 13.324C122.486 12.5466 122.329 11.8003 122.079 11.054C121.984 10.7741 121.765 10.5254 121.483 10.401C121.2 10.2766 120.887 10.3077 120.604 10.4321L117.217 12.2356C116.778 12.4844 116.527 12.982 116.652 13.4795C116.778 13.977 117.217 14.3502 117.719 14.3502L121.577 14.4746C121.89 14.4746 122.173 14.3502 122.392 14.1325C122.549 13.9459 122.643 13.635 122.611 13.324Z" fill="white"></path><path d="M110.6 0.574814C109.847 0.388235 109.064 0.263852 108.28 0.232756C107.966 0.20166 107.684 0.326045 107.464 0.54372C107.244 0.761394 107.151 1.07236 107.181 1.35222L107.59 5.14597C107.652 5.64353 108.029 6.04778 108.562 6.14108C109.064 6.23437 109.565 5.95449 109.785 5.48804L111.353 2.00525C111.479 1.72538 111.479 1.41442 111.322 1.13455C111.165 0.823588 110.914 0.637005 110.6 0.574814Z" fill="white"></path></svg>