<svg xmlns="http://www.w3.org/2000/svg" width="110" height="35" viewBox="0 0 110 35" fill="none"><path fill-rule="evenodd" clip-rule="evenodd" d="M17.0863 4.86969L4.8143 13.9283L13.8288 20.5829L7.33137 25.3788L2.67948 21.9439C1.29688 20.9188 0.500098 19.1631 0.5 17.1129V17.1129V17.1126V10.7439V10.7438V10.7435C0.500098 8.69328 1.29688 6.93767 2.67948 5.91255L10.5889 0.0737305L17.0862 4.86964L17.0863 4.86961L17.0862 4.86965L17.0863 4.86969ZM10.9638 13.9312L19.9783 20.5858L7.70605 29.6446L14.2035 34.4405L22.1129 28.6017C23.4955 27.5765 24.2923 25.8208 24.2923 23.7704L24.2926 23.7706V17.4015C24.2926 15.3511 23.4958 13.5954 22.1131 12.5702L17.4612 9.13525L10.9638 13.9312Z" fill="#5822C6"></path><path d="M106.55 12.3658H109.102L104.734 24.3162C102.894 29.3466 99.0901 29.3466 98.354 29.2485C96.1946 28.9786 94.3051 27.2854 94.0352 25.445H94.5259C95.0903 26.7455 96.7835 28.0706 98.5503 27.8498C99.8263 27.678 101.127 26.5247 102.108 24.4143H99.5809L95.1885 12.3658H97.7405L101.765 23.4082H102.452L106.55 12.3658Z" fill="white"></path><path d="M89.6309 12.3659H93.508V24.4145H90.956V14.9179H89.6309V12.3659ZM91.5694 10.5255C90.6615 10.5255 89.9253 9.78934 89.9253 8.8814C89.9253 7.97347 90.6615 7.2373 91.5694 7.2373C92.4774 7.2373 93.2135 7.97347 93.2135 8.8814C93.2135 9.78934 92.4774 10.5255 91.5694 10.5255Z" fill="white"></path><path d="M84.8735 6.01055C86.3949 5.93693 87.6709 6.59948 88.039 6.89395V8.85705C87.2538 8.34174 86.4931 8.02273 85.4624 8.07181C82.4932 8.21904 83.1803 12.3661 83.1803 12.3661H87.2783V14.4274H83.1803V24.4146H80.6283V14.4274H78.4443V12.3661H81.3645C81.3645 12.3661 80.8246 11.4827 80.6283 10.2312C80.162 7.23749 82.1742 6.13324 84.8735 6.01055Z" fill="white"></path><path d="M70.6614 11.998C73.8024 11.998 76.0845 13.3722 76.0845 16.5868V24.4147H74.7594L73.7287 20.4885C72.7717 23.4577 70.5387 24.611 68.2566 24.611C66.3916 24.611 64.8457 23.703 64.8457 21.2737C64.9439 18.8934 67.1524 17.7401 69.6062 17.5193C71.2013 17.372 72.7227 17.5193 73.5324 17.642V16.7586C73.5324 14.4765 72.3791 13.863 70.6614 13.863C68.8946 13.863 67.1523 14.8445 66.0726 16.0715L65.8273 14.0593C66.8824 13.0778 68.5756 11.998 70.6614 11.998ZM73.4834 20.1695V18.4763C72.8208 18.3781 70.9068 18.1327 69.5081 18.4517C67.6922 18.8934 67.2505 20.3903 67.5204 21.4209C67.7167 22.2798 68.4529 22.8933 69.3854 22.8933C71.0049 22.8933 72.7717 21.7645 73.4834 20.1695Z" fill="white"></path><path d="M57.3333 11.998C60.4742 11.998 62.7563 13.3722 62.7563 16.5868V24.4146H61.4312L60.4006 20.4884C59.4436 23.4576 57.2106 24.6109 54.9285 24.6109C53.0635 24.6109 51.5176 23.703 51.5176 21.2737C51.6157 18.8934 53.8242 17.7401 56.2781 17.5192C57.8731 17.372 59.3945 17.5192 60.2043 17.6419V16.7585C60.2043 14.4764 59.051 13.863 57.3333 13.863C55.5665 13.863 53.8242 14.8445 52.7445 16.0714L52.4991 14.0593C53.5543 13.0777 55.2475 11.998 57.3333 11.998ZM60.1552 20.1694V18.4762C59.4927 18.3781 57.5787 18.1327 56.1799 18.4517C54.3641 18.8934 53.9224 20.3903 54.1923 21.4209C54.3886 22.2798 55.1248 22.8932 56.0573 22.8932C57.6768 22.8932 59.4436 21.7644 60.1552 20.1694Z" fill="white"></path><path d="M41.6941 24.6352C37.2035 24.6352 34.627 22.623 34.627 19.1631H37.1054C37.1054 20.7335 38.8476 22.4513 41.6941 22.4513C43.3137 22.4513 46.6019 22.0832 46.6019 19.6538C46.6019 17.7398 44.1725 17.4453 41.4978 17.0282C38.2342 16.5129 34.627 15.8012 34.627 11.7769C34.627 8.09607 38.4305 6.99182 42.3567 6.99182C46.8227 6.99182 49.4238 9.02854 49.3993 12.464H46.9454C46.9209 10.8935 45.1786 9.17577 42.3567 9.17577C40.7371 9.17577 37.4244 9.56839 37.4244 11.9977C37.4244 13.8381 39.5592 14.3044 42.0131 14.7215C45.3995 15.3105 49.4238 15.8258 49.4238 19.8501C49.4238 23.531 45.6203 24.6352 41.6941 24.6352Z" fill="white"></path></svg>