<svg xmlns="http://www.w3.org/2000/svg" width="123" height="39" viewBox="0 0 123 39" fill="none"><path fill-rule="evenodd" clip-rule="evenodd" d="M0.709961 19.4962C0.710038 21.7969 1.60418 23.7671 3.15573 24.9175L8.376 28.7721L15.6673 23.3902L5.5513 15.9225L19.3228 5.757L19.3226 5.75705L19.3228 5.75694L12.0315 0.375L3.15573 6.92722C1.60417 8.07761 0.710022 10.0478 0.709961 12.3486V12.3488V12.3489V19.4959V19.496V19.4961V19.4962ZM12.452 15.9255L22.5684 23.3935L8.79688 33.559L16.0882 38.941L24.9639 32.3888C26.5156 31.2383 27.4097 29.268 27.4097 26.9671V19.8199L27.4097 19.8199L27.4093 19.82V19.8199C27.4093 17.519 26.5152 15.5487 24.9636 14.3982L19.7433 10.5436L12.452 15.9255Z" fill="#5822C6"></path><path d="M119.718 14.1694H122.582L117.68 27.5799C115.615 33.225 111.346 33.225 110.52 33.1149C108.097 32.812 105.977 30.9119 105.674 28.8466H106.225C106.858 30.3061 108.758 31.7931 110.741 31.5453C112.173 31.3525 113.632 30.0583 114.733 27.6901H111.897L106.968 14.1694H109.832L114.348 26.5611H115.119L119.718 14.1694Z" fill="#1F1F1F"></path><path d="M100.732 14.1693H105.083V27.69H102.219V17.0331H100.732V14.1693ZM102.908 12.104C101.889 12.104 101.063 11.2779 101.063 10.259C101.063 9.24017 101.889 8.41406 102.908 8.41406C103.927 8.41406 104.753 9.24017 104.753 10.259C104.753 11.2779 103.927 12.104 102.908 12.104Z" fill="#1F1F1F"></path><path d="M95.3934 7.03712C97.1007 6.95451 98.5326 7.69801 98.9457 8.02845V10.2314C98.0645 9.65314 97.2108 9.29515 96.0543 9.35023C92.7223 9.51545 93.4933 14.1692 93.4933 14.1692H98.092V16.4823H93.4933V27.6899H90.6295V16.4823H88.1787V14.1692H91.4556C91.4556 14.1692 90.8498 13.1779 90.6295 11.7735C90.1063 8.41397 92.3643 7.17481 95.3934 7.03712Z" fill="#1F1F1F"></path><path d="M79.4442 13.7563C82.969 13.7563 85.5299 15.2984 85.5299 18.9058V27.6901H84.0429L82.8864 23.2841C81.8124 26.6161 79.3065 27.9104 76.7456 27.9104C74.6528 27.9104 72.918 26.8915 72.918 24.1653C73.0281 21.4942 75.5064 20.2 78.2601 19.9522C80.05 19.7869 81.7573 19.9522 82.6661 20.0899V19.0985C82.6661 16.5376 81.3718 15.8492 79.4442 15.8492C77.4616 15.8492 75.5064 16.9506 74.2948 18.3275L74.0194 16.0695C75.2035 14.968 77.1036 13.7563 79.4442 13.7563ZM82.611 22.9262V21.0261C81.8675 20.916 79.7196 20.6406 78.15 20.9986C76.1123 21.4942 75.6166 23.174 75.9195 24.3306C76.1398 25.2943 76.9659 25.9828 78.0123 25.9828C79.8297 25.9828 81.8124 24.7161 82.611 22.9262Z" fill="#1F1F1F"></path><path d="M64.4872 13.7563C68.0119 13.7563 70.5729 15.2984 70.5729 18.9058V27.6901H69.0859L67.9293 23.2841C66.8554 26.6161 64.3495 27.9104 61.7886 27.9104C59.6958 27.9104 57.9609 26.8915 57.9609 24.1653C58.0711 21.4942 60.5494 20.2 63.3031 19.9522C65.093 19.7869 66.8003 19.9522 67.709 20.0899V19.0985C67.709 16.5376 66.4148 15.8492 64.4872 15.8492C62.5045 15.8492 60.5494 16.9506 59.3378 18.3275L59.0624 16.0695C60.2465 14.968 62.1466 13.7563 64.4872 13.7563ZM67.654 22.9262V21.0261C66.9105 20.916 64.7626 20.6406 63.193 20.9986C61.1552 21.4942 60.6596 23.174 60.9625 24.3306C61.1828 25.2943 62.0089 25.9828 63.0553 25.9828C64.8727 25.9828 66.8554 24.7161 67.654 22.9262Z" fill="#1F1F1F"></path><path d="M46.9375 27.9378C41.8982 27.9378 39.0068 25.6797 39.0068 21.797H41.7881C41.7881 23.5594 43.7432 25.487 46.9375 25.487C48.7549 25.487 52.4449 25.0739 52.4449 22.3478C52.4449 20.1999 49.7187 19.8694 46.7172 19.4013C43.0548 18.823 39.0068 18.0244 39.0068 13.5084C39.0068 9.37784 43.2751 8.13867 47.681 8.13867C52.6927 8.13867 55.6116 10.4242 55.5841 14.2794H52.8304C52.8029 12.5171 50.8477 10.5895 47.681 10.5895C45.8635 10.5895 42.1461 11.0301 42.1461 13.7562C42.1461 15.8215 44.5418 16.3447 47.2955 16.8128C51.0956 17.4737 55.6116 18.052 55.6116 22.5681C55.6116 26.6986 51.3434 27.9378 46.9375 27.9378Z" fill="#1F1F1F"></path></svg>